<svg width="104" height="88" viewBox="0 0 104 88" fill="none" xmlns="http://www.w3.org/2000/svg">
<path d="M19.7778 88H9.36843C6.88377 88 4.50087 87.0066 2.74395 85.2384C0.987029 83.4702 0 81.072 0 78.5714V38.7619C0 36.2613 0.987029 33.8631 2.74395 32.0949C4.50087 30.3267 6.88377 29.3333 9.36843 29.3333H19.7778C22.2625 29.3333 24.6454 30.3267 26.4023 32.0949C28.1592 33.8631 29.1462 36.2613 29.1462 38.7619V78.5714C29.1462 81.072 28.1592 83.4702 26.4023 85.2384C24.6454 87.0066 22.2625 88 19.7778 88ZM57.2515 88H46.8422C44.3575 88 41.9746 87.0066 40.2177 85.2384C38.4608 83.4702 37.4737 81.072 37.4737 78.5714V26.1905C37.4737 23.6899 38.4608 21.2917 40.2177 19.5235C41.9746 17.7553 44.3575 16.7619 46.8422 16.7619H57.2515C59.7362 16.7619 62.1191 17.7553 63.876 19.5235C65.6329 21.2917 66.62 23.6899 66.62 26.1905V78.5714C66.62 81.072 65.6329 83.4702 63.876 85.2384C62.1191 87.0066 59.7362 88 57.2515 88ZM94.6316 88H84.2222C81.7375 88 79.3546 87.0066 77.5977 85.2384C75.8408 83.4702 74.8538 81.072 74.8538 78.5714V9.42857C74.8538 6.92796 75.8408 4.52977 77.5977 2.76157C79.3546 0.993365 81.7375 0 84.2222 0H94.6316C97.1162 0 99.4991 0.993365 101.256 2.76157C103.013 4.52977 104 6.92796 104 9.42857V78.5714C104 81.072 103.013 83.4702 101.256 85.2384C99.4991 87.0066 97.1162 88 94.6316 88Z" fill="#BDDCF8"/>
<circle cx="76" cy="59" r="22.5" fill="white" stroke="#B8DEFF"/>
<mask id="path-3-inside-1_549_2532" fill="white">
<path fill-rule="evenodd" clip-rule="evenodd" d="M80.4686 44.5555H72.6425V55.6425H61.5555V63.4686H72.6425V74.5555H80.4686V63.4686H91.5555V55.6425H80.4686V44.5555Z"/>
</mask>
<path fill-rule="evenodd" clip-rule="evenodd" d="M80.4686 44.5555H72.6425V55.6425H61.5555V63.4686H72.6425V74.5555H80.4686V63.4686H91.5555V55.6425H80.4686V44.5555Z" fill="#228BE6"/>
<path d="M72.6425 44.5555V43.5555H71.6425V44.5555H72.6425ZM80.4686 44.5555H81.4686V43.5555H80.4686V44.5555ZM72.6425 55.6425V56.6425H73.6425V55.6425H72.6425ZM61.5555 55.6425V54.6425H60.5555V55.6425H61.5555ZM61.5555 63.4686H60.5555V64.4686H61.5555V63.4686ZM72.6425 63.4686H73.6425V62.4686H72.6425V63.4686ZM72.6425 74.5555H71.6425V75.5555H72.6425V74.5555ZM80.4686 74.5555V75.5555H81.4686V74.5555H80.4686ZM80.4686 63.4686V62.4686H79.4686V63.4686H80.4686ZM91.5555 63.4686V64.4686H92.5555V63.4686H91.5555ZM91.5555 55.6425H92.5555V54.6425H91.5555V55.6425ZM80.4686 55.6425H79.4686V56.6425H80.4686V55.6425ZM72.6425 45.5555H80.4686V43.5555H72.6425V45.5555ZM73.6425 55.6425V44.5555H71.6425V55.6425H73.6425ZM61.5555 56.6425H72.6425V54.6425H61.5555V56.6425ZM62.5555 63.4686V55.6425H60.5555V63.4686H62.5555ZM72.6425 62.4686H61.5555V64.4686H72.6425V62.4686ZM73.6425 74.5555V63.4686H71.6425V74.5555H73.6425ZM80.4686 73.5555H72.6425V75.5555H80.4686V73.5555ZM79.4686 63.4686V74.5555H81.4686V63.4686H79.4686ZM91.5555 62.4686H80.4686V64.4686H91.5555V62.4686ZM90.5555 55.6425V63.4686H92.5555V55.6425H90.5555ZM80.4686 56.6425H91.5555V54.6425H80.4686V56.6425ZM79.4686 44.5555V55.6425H81.4686V44.5555H79.4686Z" fill="white" mask="url(#path-3-inside-1_549_2532)"/>
</svg>
