<svg width="34" height="34" viewBox="0 0 34 34" fill="none" xmlns="http://www.w3.org/2000/svg">
<mask id="path-1-inside-1_219_6029" fill="white">
<path fill-rule="evenodd" clip-rule="evenodd" d="M17.7094 4.58633C17.7094 4.58635 17.7094 4.58635 17.7094 4.58636L9.0042 5.41389C7.09214 5.59565 5.57918 7.11078 5.40016 9.0231L4.58709 17.7083C4.58706 17.7086 4.58695 17.7088 4.58677 17.709C4.58634 17.7094 4.58634 17.7101 4.58677 17.7105L18.0488 31.1726C19.6109 32.7347 22.1436 32.7347 23.7057 31.1726L31.1723 23.7059C32.7344 22.1438 32.7344 19.6112 31.1723 18.0491L17.7101 4.58687C17.71 4.5868 17.71 4.58668 17.7101 4.58661C17.7102 4.58649 17.7101 4.58629 17.7099 4.5863L17.7096 4.58633C17.7096 4.58634 17.7096 4.58633 17.7095 4.58631C17.7095 4.58628 17.7095 4.58628 17.7094 4.58631L17.7094 4.58633Z"/>
</mask>
<path fill-rule="evenodd" clip-rule="evenodd" d="M17.7094 4.58633C17.7094 4.58635 17.7094 4.58635 17.7094 4.58636L9.0042 5.41389C7.09214 5.59565 5.57918 7.11078 5.40016 9.0231L4.58709 17.7083C4.58706 17.7086 4.58695 17.7088 4.58677 17.709C4.58634 17.7094 4.58634 17.7101 4.58677 17.7105L18.0488 31.1726C19.6109 32.7347 22.1436 32.7347 23.7057 31.1726L31.1723 23.7059C32.7344 22.1438 32.7344 19.6112 31.1723 18.0491L17.7101 4.58687C17.71 4.5868 17.71 4.58668 17.7101 4.58661C17.7102 4.58649 17.7101 4.58629 17.7099 4.5863L17.7096 4.58633C17.7096 4.58634 17.7096 4.58633 17.7095 4.58631C17.7095 4.58628 17.7095 4.58628 17.7094 4.58631L17.7094 4.58633Z" fill="#0099FF"/>
<path d="M17.7096 4.58633L17.4253 1.59983L17.7096 4.58633ZM17.7099 4.5863L17.4257 1.5998L17.7099 4.5863ZM17.7101 4.58687L15.5888 6.70819L17.7101 4.58687ZM4.58709 17.7083L1.60015 17.4287L4.58709 17.7083ZM17.7094 4.58636L17.9933 7.57289L17.7094 4.58636ZM9.28811 8.40042L17.9933 7.57289L17.4255 1.59982L8.7203 2.42735L9.28811 8.40042ZM7.57403 17.9879L8.3871 9.30273L2.41322 8.74348L1.60015 17.4287L7.57403 17.9879ZM20.1701 29.0513L6.70809 15.5892L2.46545 19.8319L15.9275 33.2939L20.1701 29.0513ZM29.051 21.5846L21.5843 29.0513L25.827 33.2939L33.2936 25.8273L29.051 21.5846ZM15.5888 6.70819L29.051 20.1704L33.2936 15.9278L19.8314 2.46555L15.5888 6.70819ZM17.9939 7.57284L17.9942 7.5728L17.4257 1.5998L17.4253 1.59983L17.9939 7.57284ZM19.8307 6.70765L19.8308 6.70763L15.5881 2.46499L15.5881 2.46501L19.8307 6.70765ZM19.8309 2.46499C18.6593 1.29339 16.7597 1.29339 15.5881 2.46499L19.8308 6.70763C18.6592 7.87918 16.7598 7.87918 15.5882 6.70763L19.8309 2.46499ZM17.4253 1.59983C18.3161 1.51505 19.1982 1.8323 19.8309 2.46499L15.5882 6.70763C16.2209 7.34036 17.1031 7.65762 17.9939 7.57284L17.4253 1.59983ZM19.8314 6.70793C21.8201 4.71926 20.2254 1.33331 17.4257 1.5998L17.9942 7.5728C15.1948 7.83926 13.6003 4.45372 15.5888 2.46529L19.8314 6.70793ZM19.8314 2.46555C21.0029 3.63705 21.0029 5.53643 19.8314 6.70793L15.5888 2.46529C14.4171 3.63693 14.4171 5.53654 15.5888 6.70819L19.8314 2.46555ZM33.2936 25.8273C36.0273 23.0936 36.0273 18.6614 33.2936 15.9278L29.051 20.1704C29.4415 20.5609 29.4415 21.1941 29.051 21.5846L33.2936 25.8273ZM15.9275 33.2939C18.6612 36.0276 23.0933 36.0276 25.827 33.2939L21.5843 29.0513C21.1938 29.4418 20.5606 29.4418 20.1701 29.0513L15.9275 33.2939ZM2.46545 15.5877C1.29232 16.7608 1.29457 18.661 2.46545 19.8319L6.70809 15.5892C7.8781 16.7592 7.88035 18.658 6.70809 19.8303L2.46545 15.5877ZM1.60015 17.4287C1.66528 16.7329 1.97133 16.0818 2.46545 15.5877L6.70809 19.8303C7.20257 19.3358 7.50885 18.6842 7.57403 17.9879L1.60015 17.4287ZM17.9933 7.57289C18.6752 7.50807 19.3286 7.20976 19.8307 6.70765L15.5881 2.46501C16.0902 1.96293 16.7436 1.66464 17.4255 1.59982L17.9933 7.57289ZM8.7203 2.42735C5.37419 2.74544 2.72651 5.39691 2.41322 8.74348L8.3871 9.30273C8.43185 8.82465 8.81009 8.44587 9.28811 8.40042L8.7203 2.42735Z" fill="#0099FF" mask="url(#path-1-inside-1_219_6029)"/>
<path fill-rule="evenodd" clip-rule="evenodd" d="M15.6535 15.6984C17.1156 14.2363 17.1156 11.8658 15.6535 10.4037C14.1915 8.94162 11.821 8.94162 10.3589 10.4037C8.8968 11.8658 8.8968 14.2363 10.3589 15.6984C11.821 17.1604 14.1915 17.1604 15.6535 15.6984ZM14.4807 14.5255C15.295 13.7112 15.295 12.3909 14.4807 11.5766C13.6663 10.7623 12.3461 10.7623 11.5318 11.5766C10.7174 12.3909 10.7174 13.7112 11.5318 14.5255C12.3461 15.3398 13.6663 15.3398 14.4807 14.5255Z" fill="white"/>
</svg>
