<svg width="28" height="25" viewBox="0 0 28 25" fill="none" xmlns="http://www.w3.org/2000/svg">
<path d="M4 3.5035H24C24.2336 3.50339 24.467 3.51821 24.6987 3.54788C24.6202 2.99646 24.4308 2.46666 24.142 1.99043C23.8531 1.51419 23.4709 1.10138 23.0182 0.776879C22.5655 0.452382 22.0518 0.222921 21.5081 0.10233C20.9643 -0.0182602 20.4018 -0.0274824 19.8544 0.0752196L3.40625 2.88347H3.3875C2.35505 3.08092 1.43691 3.66509 0.820625 4.51667C1.74912 3.85622 2.86059 3.50203 4 3.5035ZM24 5.00357H4C2.93949 5.00473 1.92275 5.42655 1.17285 6.17648C0.422957 6.9264 0.00115803 7.94319 0 9.00375V21.0043C0.00115803 22.0649 0.422957 23.0817 1.17285 23.8316C1.92275 24.5815 2.93949 25.0033 4 25.0045H24C25.0605 25.0033 26.0773 24.5815 26.8271 23.8316C27.577 23.0817 27.9988 22.0649 28 21.0043V9.00375C27.9988 7.94319 27.577 6.9264 26.8271 6.17648C26.0773 5.42655 25.0605 5.00473 24 5.00357ZM21.0312 17.0041C20.6357 17.0041 20.249 16.8868 19.9201 16.667C19.5912 16.4473 19.3349 16.1349 19.1835 15.7694C19.0321 15.404 18.9925 15.0018 19.0697 14.6138C19.1469 14.2259 19.3373 13.8695 19.617 13.5898C19.8967 13.31 20.2531 13.1195 20.6411 13.0424C21.029 12.9652 21.4312 13.0048 21.7966 13.1562C22.1621 13.3076 22.4744 13.5639 22.6942 13.8928C22.914 14.2217 23.0312 14.6084 23.0312 15.004C23.0312 15.5345 22.8205 16.0432 22.4455 16.4183C22.0704 16.7934 21.5617 17.0041 21.0312 17.0041Z" fill="#FAB005"/>
<path d="M0 13.0045V6.64111C0 5.25524 0.792822 2.93181 3.54458 2.4285C5.8801 2.00449 8.1925 2.00449 8.1925 2.00449C8.1925 2.00449 9.71207 3.02774 8.45677 3.02774C7.20147 3.02774 7.2345 4.5946 8.45677 4.5946C9.67904 4.5946 8.45677 6.09751 8.45677 6.09751L3.53467 11.5016L0 13.0045Z" fill="#FAB005"/>
</svg>
