<svg width="40" height="40" viewBox="0 0 40 40" fill="none" xmlns="http://www.w3.org/2000/svg">
<rect width="40" height="40" rx="10" fill="#FFF5F5"/>
<path d="M26.0265 26.6519H32.589V20.0894" stroke="#FA5252" stroke-width="3" stroke-linecap="round" stroke-linejoin="round"/>
<path d="M8.21399 13.5269L15.3255 20.6384C15.4996 20.8125 15.7063 20.9507 15.9339 21.0449C16.1614 21.1392 16.4052 21.1877 16.6515 21.1877C16.8978 21.1877 17.1416 21.1392 17.3691 21.0449C17.5966 20.9507 17.8034 20.8125 17.9775 20.6384L20.9505 17.6653C21.1246 17.4912 21.3313 17.353 21.5589 17.2588C21.7864 17.1645 22.0302 17.116 22.2765 17.116C22.5228 17.116 22.7666 17.1645 22.9941 17.2588C23.2216 17.353 23.4284 17.4912 23.6025 17.6653L31.6515 25.7144" stroke="#FA5252" stroke-width="3" stroke-linecap="round" stroke-linejoin="round"/>
</svg>
