<svg width="20" height="18" viewBox="0 0 20 18" fill="none" xmlns="http://www.w3.org/2000/svg">
<path fill-rule="evenodd" clip-rule="evenodd" d="M9.11511 0.681227C9.49002 -0.0311109 10.51 -0.0311129 10.8849 0.681225L19.2286 16.5341C19.5791 17.2 19.0962 17.9999 18.3437 17.9999H1.65639C0.903882 17.9999 0.420994 17.2 0.771474 16.5341L9.11511 0.681227ZM10 5.24988C10.4142 5.24988 10.75 5.58567 10.75 5.99988V10.9999C10.75 11.4141 10.4142 11.7499 10 11.7499C9.58581 11.7499 9.25003 11.4141 9.25003 10.9999V5.99988C9.25003 5.58567 9.58581 5.24988 10 5.24988ZM10 14.9999C10.5523 14.9999 11 14.5522 11 13.9999C11 13.4476 10.5523 12.9999 10 12.9999C9.44774 12.9999 9.00003 13.4476 9.00003 13.9999C9.00003 14.5522 9.44774 14.9999 10 14.9999Z" fill="#FA5252"/>
</svg>
