<svg width="88" height="88" viewBox="0 0 88 88" fill="none" xmlns="http://www.w3.org/2000/svg">
<path d="M44 0C19.7387 0 0 19.7387 0 44C0 68.2613 19.7387 88 44 88C68.2613 88 88 68.2613 88 44C88 19.7387 68.2613 0 44 0ZM44 67.6733C43.1632 67.6733 42.3453 67.4251 41.6495 66.9603C40.9538 66.4954 40.4115 65.8346 40.0913 65.0615C39.7711 64.2885 39.6873 63.4378 39.8505 62.6171C40.0138 61.7964 40.4167 61.0426 41.0084 60.4509C41.6001 59.8592 42.3539 59.4563 43.1746 59.293C43.9953 59.1298 44.846 59.2136 45.619 59.5338C46.3921 59.854 47.0529 60.3963 47.5178 61.092C47.9826 61.7878 48.2308 62.6057 48.2308 63.4425C48.2308 64.5646 47.785 65.6407 46.9916 66.4341C46.1982 67.2275 45.1221 67.6733 44 67.6733ZM48.5946 25.1223L47.3804 50.93C47.3804 51.8277 47.0238 52.6885 46.3891 53.3233C45.7543 53.958 44.8934 54.3146 43.9958 54.3146C43.0981 54.3146 42.2372 53.958 41.6025 53.3233C40.9677 52.6885 40.6112 51.8277 40.6112 50.93L39.3969 25.135V25.1244C39.3703 24.5045 39.4694 23.8855 39.6883 23.3049C39.9072 22.7242 40.2414 22.1939 40.6707 21.7458C41.0999 21.2977 41.6155 20.9411 42.1862 20.6975C42.7569 20.4539 43.371 20.3284 43.9915 20.3284C44.6121 20.3284 45.2262 20.4539 45.7969 20.6975C46.3676 20.9411 46.8831 21.2977 47.3124 21.7458C47.7417 22.1939 48.0758 22.7242 48.2947 23.3049C48.5136 23.8855 48.6128 24.5045 48.5862 25.1244L48.5946 25.1223Z" fill="#707C87"/>
</svg>
