<svg width="40" height="40" viewBox="0 0 40 40" fill="none" xmlns="http://www.w3.org/2000/svg">
<rect width="40" height="40" rx="10" fill="#E7F5FF"/>
<path d="M25.625 13.4375H32.1875V20" stroke="#228BE6" stroke-width="3" stroke-linecap="round" stroke-linejoin="round"/>
<path d="M7.8125 26.5625L14.924 19.451C15.0981 19.2768 15.3049 19.1387 15.5324 19.0444C15.7599 18.9502 16.0037 18.9017 16.25 18.9017C16.4963 18.9017 16.7401 18.9502 16.9676 19.0444C17.1951 19.1387 17.4019 19.2768 17.576 19.451L20.549 22.424C20.7231 22.5982 20.9299 22.7363 21.1574 22.8306C21.3849 22.9248 21.6287 22.9734 21.875 22.9734C22.1213 22.9734 22.3651 22.9248 22.5926 22.8306C22.8201 22.7363 23.0269 22.5982 23.201 22.424L31.25 14.375" stroke="#228BE6" stroke-width="3" stroke-linecap="round" stroke-linejoin="round"/>
</svg>
