<svg width="66" height="80" viewBox="0 0 66 80" fill="none" xmlns="http://www.w3.org/2000/svg">
<rect x="1" y="1" width="64" height="78" fill="white" stroke="#ADB5BD"/>
<rect x="8" y="8" width="50" height="64" rx="4" fill="#E9ECEF"/>
<path d="M21.082 27.4961V38.0195H19.9688V27.4961H21.082ZM15.4688 28.2812C17.0273 28.2812 18.1758 29.7109 18.1758 31.9609C18.1758 34.2227 17.0273 35.6523 15.4688 35.6523C13.8867 35.6523 12.75 34.2227 12.75 31.9609C12.75 29.7109 13.8867 28.2812 15.4688 28.2812ZM15.4688 29.2773C14.4961 29.2773 13.8281 30.3086 13.8281 31.9609C13.8281 33.625 14.4961 34.6562 15.4688 34.6562C16.4297 34.6562 17.0977 33.625 17.0977 31.9609C17.0977 30.3086 16.4297 29.2773 15.4688 29.2773ZM28.2656 28.5039V35.4062H23.3438V28.5039H28.2656ZM24.4453 29.3828V34.5039H27.1875V29.3828H24.4453ZM31.4531 27.4961V38.0195H30.3398V27.4961H31.4531ZM36.9961 30.5898C36.9961 32.3477 38.1445 34.1641 39.7617 34.8555L39.1523 35.7227C37.916 35.1777 36.9316 34.0234 36.4453 32.6172C35.959 34.1172 34.9688 35.3945 33.75 35.9922L33.1055 35.1133C34.6875 34.375 35.8594 32.3945 35.8711 30.5898V29.4766H33.4688V28.5508H39.3867V29.4766H36.9961V30.5898ZM41.8242 27.4961V37.9961H40.7109V27.4961H41.8242ZM51.6797 27.4961V31.6797H53.3086V32.6055H51.6797V37.9844H50.5664V27.4961H51.6797ZM48.9375 28.5977C48.9258 31.6328 47.5898 34.3398 44.1328 36.0508L43.5117 35.1836C46.1426 33.8711 47.5723 31.9727 47.8008 29.5234H44.0391V28.5977H48.9375ZM14.625 47.6484V48.8672H16.2656V47.6484H17.2969V51.8672H13.582V47.6484H14.625ZM14.625 51H16.2656V49.7109H14.625V51ZM20.3438 48.4336C20.3438 49.5352 20.9531 50.6484 22.2539 51.1055L21.6797 51.9492C20.7305 51.5859 20.1152 50.9004 19.793 50.0625C19.4414 50.8828 18.8203 51.5742 17.918 51.9492L17.3555 51.1055C18.6211 50.5898 19.2422 49.4766 19.2422 48.4336V47.5781H20.3438V48.4336ZM15.293 41.9414C16.6758 41.9414 17.7422 42.7266 17.9766 43.8984H20.0273V41.4961H21.1406V47.0625H20.0273V44.8125H17.9883C17.7598 46.0195 16.6875 46.8047 15.293 46.8047C13.6875 46.8047 12.5391 45.8203 12.5391 44.3672C12.5391 42.9375 13.6875 41.9414 15.293 41.9414ZM15.293 42.8672C14.2969 42.8672 13.6055 43.4766 13.6055 44.3672C13.6055 45.2695 14.2969 45.8906 15.293 45.9023C16.2656 45.8906 16.957 45.2695 16.957 44.3672C16.957 43.4766 16.2656 42.8672 15.293 42.8672ZM25.043 47.7891V48.9023H29.9766V47.7891H31.0898V51.8672H23.9414V47.7891H25.043ZM25.043 50.9766H29.9766V49.7695H25.043V50.9766ZM32.332 46.207V47.1328H22.7578V46.207H32.332ZM28.1133 42.0586C28.1133 43.2656 29.7891 44.4375 31.8047 44.6836L31.4062 45.5625C29.7012 45.3223 28.2188 44.5195 27.5508 43.4062C26.8652 44.5254 25.377 45.3223 23.6953 45.5625L23.2734 44.6836C25.3125 44.4258 26.9766 43.3008 26.9766 42.0586V41.6133H28.1133V42.0586ZM41.8477 41.4961V51.9961H40.7344V41.4961H41.8477ZM34.875 42.5156V48.3633C36.4043 48.3516 38.0156 48.2285 39.7031 47.8828L39.8555 48.8203C37.9922 49.1953 36.3047 49.3242 34.6523 49.3242H33.7734V42.5156H34.875ZM51.6797 41.4961V45.5625H53.3672V46.4766H51.6797V52.0195H50.5664V41.4961H51.6797ZM48.8555 42.5039V43.4062H45.0586V48.4805C46.8223 48.4746 48.1465 48.3984 49.6406 48.1289L49.7812 49.0664C48.1406 49.3594 46.7461 49.418 44.7891 49.4062H43.9453V42.5039H48.8555Z" fill="#ADB5BD"/>
</svg>
