<svg width="50" height="64" viewBox="0 0 50 64" fill="none" xmlns="http://www.w3.org/2000/svg">
<rect width="50" height="64" rx="4" fill="#E9ECEF"/>
<path d="M13.082 19.4961V30.0195H11.9688V19.4961H13.082ZM7.46875 20.2812C9.02734 20.2812 10.1758 21.7109 10.1758 23.9609C10.1758 26.2227 9.02734 27.6523 7.46875 27.6523C5.88672 27.6523 4.75 26.2227 4.75 23.9609C4.75 21.7109 5.88672 20.2812 7.46875 20.2812ZM7.46875 21.2773C6.49609 21.2773 5.82812 22.3086 5.82812 23.9609C5.82812 25.625 6.49609 26.6562 7.46875 26.6562C8.42969 26.6562 9.09766 25.625 9.09766 23.9609C9.09766 22.3086 8.42969 21.2773 7.46875 21.2773ZM20.2656 20.5039V27.4062H15.3438V20.5039H20.2656ZM16.4453 21.3828V26.5039H19.1875V21.3828H16.4453ZM23.4531 19.4961V30.0195H22.3398V19.4961H23.4531ZM28.9961 22.5898C28.9961 24.3477 30.1445 26.1641 31.7617 26.8555L31.1523 27.7227C29.916 27.1777 28.9316 26.0234 28.4453 24.6172C27.959 26.1172 26.9688 27.3945 25.75 27.9922L25.1055 27.1133C26.6875 26.375 27.8594 24.3945 27.8711 22.5898V21.4766H25.4688V20.5508H31.3867V21.4766H28.9961V22.5898ZM33.8242 19.4961V29.9961H32.7109V19.4961H33.8242ZM43.6797 19.4961V23.6797H45.3086V24.6055H43.6797V29.9844H42.5664V19.4961H43.6797ZM40.9375 20.5977C40.9258 23.6328 39.5898 26.3398 36.1328 28.0508L35.5117 27.1836C38.1426 25.8711 39.5723 23.9727 39.8008 21.5234H36.0391V20.5977H40.9375ZM6.625 39.6484V40.8672H8.26562V39.6484H9.29688V43.8672H5.58203V39.6484H6.625ZM6.625 43H8.26562V41.7109H6.625V43ZM12.3438 40.4336C12.3438 41.5352 12.9531 42.6484 14.2539 43.1055L13.6797 43.9492C12.7305 43.5859 12.1152 42.9004 11.793 42.0625C11.4414 42.8828 10.8203 43.5742 9.91797 43.9492L9.35547 43.1055C10.6211 42.5898 11.2422 41.4766 11.2422 40.4336V39.5781H12.3438V40.4336ZM7.29297 33.9414C8.67578 33.9414 9.74219 34.7266 9.97656 35.8984H12.0273V33.4961H13.1406V39.0625H12.0273V36.8125H9.98828C9.75977 38.0195 8.6875 38.8047 7.29297 38.8047C5.6875 38.8047 4.53906 37.8203 4.53906 36.3672C4.53906 34.9375 5.6875 33.9414 7.29297 33.9414ZM7.29297 34.8672C6.29688 34.8672 5.60547 35.4766 5.60547 36.3672C5.60547 37.2695 6.29688 37.8906 7.29297 37.9023C8.26562 37.8906 8.95703 37.2695 8.95703 36.3672C8.95703 35.4766 8.26562 34.8672 7.29297 34.8672ZM17.043 39.7891V40.9023H21.9766V39.7891H23.0898V43.8672H15.9414V39.7891H17.043ZM17.043 42.9766H21.9766V41.7695H17.043V42.9766ZM24.332 38.207V39.1328H14.7578V38.207H24.332ZM20.1133 34.0586C20.1133 35.2656 21.7891 36.4375 23.8047 36.6836L23.4062 37.5625C21.7012 37.3223 20.2188 36.5195 19.5508 35.4062C18.8652 36.5254 17.377 37.3223 15.6953 37.5625L15.2734 36.6836C17.3125 36.4258 18.9766 35.3008 18.9766 34.0586V33.6133H20.1133V34.0586ZM33.8477 33.4961V43.9961H32.7344V33.4961H33.8477ZM26.875 34.5156V40.3633C28.4043 40.3516 30.0156 40.2285 31.7031 39.8828L31.8555 40.8203C29.9922 41.1953 28.3047 41.3242 26.6523 41.3242H25.7734V34.5156H26.875ZM43.6797 33.4961V37.5625H45.3672V38.4766H43.6797V44.0195H42.5664V33.4961H43.6797ZM40.8555 34.5039V35.4062H37.0586V40.4805C38.8223 40.4746 40.1465 40.3984 41.6406 40.1289L41.7812 41.0664C40.1406 41.3594 38.7461 41.418 36.7891 41.4062H35.9453V34.5039H40.8555Z" fill="#ADB5BD"/>
</svg>
