<svg width="104" height="88" viewBox="0 0 104 88" fill="none" xmlns="http://www.w3.org/2000/svg">
<path d="M19.7778 88H9.36843C6.88377 88 4.50087 87.0066 2.74395 85.2384C0.987029 83.4702 0 81.072 0 78.5714V38.7619C0 36.2613 0.987029 33.8631 2.74395 32.0949C4.50087 30.3267 6.88377 29.3333 9.36843 29.3333H19.7778C22.2625 29.3333 24.6454 30.3267 26.4023 32.0949C28.1592 33.8631 29.1462 36.2613 29.1462 38.7619V78.5714C29.1462 81.072 28.1592 83.4702 26.4023 85.2384C24.6454 87.0066 22.2625 88 19.7778 88ZM57.2515 88H46.8422C44.3575 88 41.9746 87.0066 40.2177 85.2384C38.4608 83.4702 37.4737 81.072 37.4737 78.5714V26.1905C37.4737 23.6899 38.4608 21.2917 40.2177 19.5235C41.9746 17.7553 44.3575 16.7619 46.8422 16.7619H57.2515C59.7362 16.7619 62.1191 17.7553 63.876 19.5235C65.6329 21.2917 66.62 23.6899 66.62 26.1905V78.5714C66.62 81.072 65.6329 83.4702 63.876 85.2384C62.1191 87.0066 59.7362 88 57.2515 88ZM94.6316 88H84.2222C81.7375 88 79.3546 87.0066 77.5977 85.2384C75.8408 83.4702 74.8538 81.072 74.8538 78.5714V9.42857C74.8538 6.92796 75.8408 4.52977 77.5977 2.76157C79.3546 0.993365 81.7375 0 84.2222 0H94.6316C97.1162 0 99.4991 0.993365 101.256 2.76157C103.013 4.52977 104 6.92796 104 9.42857V78.5714C104 81.072 103.013 83.4702 101.256 85.2384C99.4991 87.0066 97.1162 88 94.6316 88Z" fill="#C0C7CE"/>
<mask id="path-2-inside-1_549_2533" fill="white">
<path fill-rule="evenodd" clip-rule="evenodd" d="M63.7263 23.3631C63.7263 27.9715 62.392 32.2682 60.0888 35.888L71.5087 47.308C73.4971 49.2964 73.4971 52.5203 71.5087 54.5087C69.5203 56.4971 66.2965 56.4971 64.3081 54.5087L52.8881 43.0887C49.2682 45.392 44.9715 46.7263 40.3631 46.7263C27.46 46.7263 17 36.2662 17 23.3631C17 10.46 27.46 0 40.3631 0C53.2662 0 63.7263 10.46 63.7263 23.3631ZM40.3631 36.8892C47.8333 36.8892 53.8892 30.8334 53.8892 23.3631C53.8892 15.8929 47.8333 9.83711 40.3631 9.83711C32.8929 9.83711 26.8371 15.8929 26.8371 23.3631C26.8371 30.8334 32.8929 36.8892 40.3631 36.8892Z"/>
</mask>
<path fill-rule="evenodd" clip-rule="evenodd" d="M63.7263 23.3631C63.7263 27.9715 62.392 32.2682 60.0888 35.888L71.5087 47.308C73.4971 49.2964 73.4971 52.5203 71.5087 54.5087C69.5203 56.4971 66.2965 56.4971 64.3081 54.5087L52.8881 43.0887C49.2682 45.392 44.9715 46.7263 40.3631 46.7263C27.46 46.7263 17 36.2662 17 23.3631C17 10.46 27.46 0 40.3631 0C53.2662 0 63.7263 10.46 63.7263 23.3631ZM40.3631 36.8892C47.8333 36.8892 53.8892 30.8334 53.8892 23.3631C53.8892 15.8929 47.8333 9.83711 40.3631 9.83711C32.8929 9.83711 26.8371 15.8929 26.8371 23.3631C26.8371 30.8334 32.8929 36.8892 40.3631 36.8892Z" fill="#707C87"/>
<path d="M60.0888 35.888L59.2451 35.3512L58.8145 36.028L59.3817 36.5951L60.0888 35.888ZM71.5087 47.308L72.2158 46.6009L71.5087 47.308ZM52.8881 43.0887L53.5952 42.3816L53.028 41.8144L52.3513 42.245L52.8881 43.0887ZM60.9325 36.4249C63.3348 32.6493 64.7263 28.1672 64.7263 23.3631H62.7263C62.7263 27.7757 61.4493 31.887 59.2451 35.3512L60.9325 36.4249ZM72.2158 46.6009L60.7959 35.1809L59.3817 36.5951L70.8016 48.0151L72.2158 46.6009ZM72.2158 55.2158C74.5948 52.8368 74.5948 48.9798 72.2158 46.6009L70.8016 48.0151C72.3995 49.613 72.3995 52.2037 70.8016 53.8016L72.2158 55.2158ZM63.601 55.2158C65.9799 57.5947 69.8369 57.5947 72.2158 55.2158L70.8016 53.8016C69.2037 55.3994 66.6131 55.3994 65.0152 53.8016L63.601 55.2158ZM52.181 43.7958L63.601 55.2158L65.0152 53.8016L53.5952 42.3816L52.181 43.7958ZM40.3631 47.7263C45.1672 47.7263 49.6494 46.3347 53.425 43.9324L52.3513 42.245C48.8871 44.4493 44.7758 45.7263 40.3631 45.7263V47.7263ZM16 23.3631C16 36.8185 26.9077 47.7263 40.3631 47.7263V45.7263C28.0123 45.7263 18 35.7139 18 23.3631H16ZM40.3631 -1C26.9077 -1 16 9.90774 16 23.3631H18C18 11.0123 28.0123 1 40.3631 1V-1ZM64.7263 23.3631C64.7263 9.90774 53.8185 -1 40.3631 -1V1C52.7139 1 62.7263 11.0123 62.7263 23.3631H64.7263ZM52.8892 23.3631C52.8892 30.2811 47.2811 35.8892 40.3631 35.8892V37.8892C48.3856 37.8892 54.8892 31.3856 54.8892 23.3631H52.8892ZM40.3631 10.8371C47.2811 10.8371 52.8892 16.4452 52.8892 23.3631H54.8892C54.8892 15.3406 48.3856 8.83711 40.3631 8.83711V10.8371ZM27.8371 23.3631C27.8371 16.4452 33.4452 10.8371 40.3631 10.8371V8.83711C32.3406 8.83711 25.8371 15.3406 25.8371 23.3631H27.8371ZM40.3631 35.8892C33.4452 35.8892 27.8371 30.2811 27.8371 23.3631H25.8371C25.8371 31.3856 32.3406 37.8892 40.3631 37.8892V35.8892Z" fill="white" mask="url(#path-2-inside-1_549_2533)"/>
</svg>
