<svg width="34" height="34" viewBox="0 0 34 34" fill="none" xmlns="http://www.w3.org/2000/svg">
<path d="M11.6875 29.75C12.8611 29.75 13.8125 28.7986 13.8125 27.625C13.8125 26.4514 12.8611 25.5 11.6875 25.5C10.5139 25.5 9.5625 26.4514 9.5625 27.625C9.5625 28.7986 10.5139 29.75 11.6875 29.75Z" fill="#495057"/>
<path d="M26.5625 29.75C27.7361 29.75 28.6875 28.7986 28.6875 27.625C28.6875 26.4514 27.7361 25.5 26.5625 25.5C25.3889 25.5 24.4375 26.4514 24.4375 27.625C24.4375 28.7986 25.3889 29.75 26.5625 29.75Z" fill="#495057"/>
<path d="M30.3344 8.02055C30.1851 7.83796 29.997 7.69091 29.7839 7.59006C29.5707 7.48921 29.3377 7.43709 29.1019 7.4375H8.89113L8.48406 5.12789C8.44066 4.88187 8.31195 4.65902 8.12056 4.49847C7.92916 4.33792 7.68732 4.24995 7.4375 4.25H3.1875C2.90571 4.25 2.63546 4.36194 2.4362 4.5612C2.23694 4.76046 2.125 5.03071 2.125 5.3125C2.125 5.59429 2.23694 5.86454 2.4362 6.0638C2.63546 6.26306 2.90571 6.375 3.1875 6.375H6.54633L9.57844 23.5596C9.62184 23.8056 9.75055 24.0285 9.94194 24.189C10.1333 24.3496 10.3752 24.4376 10.625 24.4375H27.625C27.9068 24.4375 28.177 24.3256 28.3763 24.1263C28.5756 23.927 28.6875 23.6568 28.6875 23.375C28.6875 23.0932 28.5756 22.823 28.3763 22.6237C28.177 22.4244 27.9068 22.3125 27.625 22.3125H11.5162L11.1416 20.1875H27.1894C27.5578 20.187 27.9148 20.0593 28.1999 19.8258C28.485 19.5924 28.6807 19.2677 28.7539 18.9065L30.6664 9.34402C30.7125 9.1126 30.7066 8.87383 30.6492 8.64495C30.5918 8.41608 30.4842 8.20281 30.3344 8.02055Z" fill="#495057"/>
</svg>
