<svg width="21" height="20" viewBox="0 0 21 20" fill="none" xmlns="http://www.w3.org/2000/svg">
<path d="M13.125 5.56055C13.125 5.56055 14.1241 5.10352 10.5 5.10352C9.20206 5.10352 7.93327 5.46091 6.85407 6.1305C5.77488 6.80009 4.93374 7.7518 4.43704 8.86529C3.94034 9.97877 3.81038 11.204 4.0636 12.3861C4.31682 13.5682 4.94183 14.654 5.85961 15.5062C6.7774 16.3584 7.94672 16.9388 9.21972 17.1739C10.4927 17.4091 11.8122 17.2884 13.0114 16.8272C14.2105 16.3659 15.2354 15.5849 15.9565 14.5828C16.6776 13.5807 17.0625 12.4025 17.0625 11.1973" stroke="#495057" stroke-width="2" stroke-miterlimit="10" stroke-linecap="round"/>
<path d="M10.5 2.20898L13.7812 5.25586L10.5 8.30273" stroke="#495057" stroke-width="2" stroke-linecap="round" stroke-linejoin="round"/>
</svg>
