<svg width="28" height="28" viewBox="0 0 28 28" fill="none" xmlns="http://www.w3.org/2000/svg">
<path d="M24.6093 7.00449C24.2182 7.00461 23.8326 7.0959 23.483 7.27111C23.1334 7.44631 22.8295 7.7006 22.5953 8.0138C22.3612 8.32699 22.2032 8.69046 22.1341 9.07535C22.065 9.46024 22.0865 9.85594 22.197 10.231L18.294 14.1335C17.7792 13.9621 17.2228 13.9621 16.708 14.1335L13.8145 11.24C13.9097 10.8685 13.9187 10.4801 13.8408 10.1046C13.7629 9.729 13.6002 9.37624 13.365 9.07323C13.1299 8.77022 12.8286 8.525 12.4841 8.3563C12.1397 8.1876 11.7612 8.0999 11.3776 8.0999C10.9941 8.0999 10.6156 8.1876 10.2712 8.3563C9.92673 8.525 9.62541 8.77022 9.39026 9.07323C9.15512 9.37624 8.99237 9.729 8.91446 10.1046C8.83656 10.4801 8.84556 10.8685 8.94077 11.24L4.10148 16.076C3.56421 15.917 2.98926 15.9416 2.46751 16.1458C1.94576 16.3501 1.50697 16.7224 1.22049 17.204C0.934015 17.6855 0.816194 18.2488 0.885651 18.8048C0.955109 19.3608 1.20788 19.8778 1.60402 20.274C2.00016 20.6703 2.51706 20.9232 3.07303 20.9929C3.629 21.0625 4.19231 20.9449 4.67395 20.6585C5.15558 20.3722 5.52805 19.9336 5.73249 19.4119C5.93693 18.8902 5.96167 18.3152 5.8028 17.7779L10.5809 13.0004C11.0956 13.172 11.6521 13.172 12.1668 13.0004L15.0609 15.8945C14.9656 16.266 14.9566 16.6544 15.0345 17.03C15.1124 17.4055 15.2752 17.7583 15.5103 18.0613C15.7455 18.3643 16.0468 18.6095 16.3913 18.7782C16.7357 18.9469 17.1142 19.0346 17.4977 19.0346C17.8813 19.0346 18.2597 18.9469 18.6042 18.7782C18.9486 18.6095 19.25 18.3643 19.4851 18.0613C19.7203 17.7583 19.883 17.4055 19.9609 17.03C20.0388 16.6544 20.0298 16.266 19.9346 15.8945L23.8984 11.9329C24.2444 12.035 24.6083 12.0615 24.9655 12.0105C25.3227 11.9596 25.6647 11.8324 25.9684 11.6376C26.2721 11.4428 26.5303 11.185 26.7256 10.8816C26.9208 10.5782 27.0485 10.2364 27.1 9.87928C27.1515 9.52219 27.1256 9.1582 27.0241 8.812C26.9225 8.46581 26.7477 8.14551 26.5115 7.87283C26.2752 7.60016 25.9831 7.38149 25.6549 7.23166C25.3267 7.08184 24.9701 7.00436 24.6093 7.00449Z" fill="#BDDCF8"/>
</svg>
