<svg width="18" height="18" viewBox="0 0 18 18" fill="none" xmlns="http://www.w3.org/2000/svg">
<path fill-rule="evenodd" clip-rule="evenodd" d="M9 18C13.9706 18 18 13.9706 18 9C18 4.02944 13.9706 0 9 0C4.02944 0 0 4.02944 0 9C0 13.9706 4.02944 18 9 18ZM13.5483 6.51174C13.8309 6.20893 13.8146 5.73434 13.5117 5.45171C13.2089 5.16909 12.7343 5.18545 12.4517 5.48826L7.36459 10.9388L5.51296 9.20285C5.21077 8.91955 4.73615 8.93486 4.45285 9.23705C4.16955 9.53923 4.18486 10.0139 4.48705 10.2972L6.88705 12.5472C7.03237 12.6834 7.22593 12.7562 7.42502 12.7496C7.62411 12.7429 7.81238 12.6574 7.94829 12.5117L13.5483 6.51174Z" fill="#228BE6"/>
</svg>
